{"title":"Journey.2.The.Mysterious.Island.2012.720p.BRrip.XviD.AC3-INFERNO","uid":7278948,"size":2582073344,"categoryP":"video","categoryS":"hd___movies","magnet":"?xt=urn:btih:71b4117a4ba12e3777ca9d0d65abcf3d1d20d3ba&amp;dn=Journey.2.The.Mysterious.Island.2012.720p.BRrip.XviD.AC3-INFERNO&amp;tr=udp%3A%2F%2Ftracker.openbittorrent.com%3A80&amp;tr=udp%3A%2F%2Fopen.demonii.com%3A1337&amp;tr=udp%3A%2F%2Ftracker.coppersurfer.tk%3A6969&amp;tr=udp%3A%2F%2Fexodus.desync.com%3A6969","seeders":0,"leechers":0,"uploader":"16DodgE16","files":1,"time":1337379086,"description":"[b]General[/b]\nFormat                           : AVI\nFormat/Info                      : Audio Video Interleave\nFormat profile                   : OpenDML\nFile size                        : 2.40 GiB\nDuration                         : 1h 34mn\nOverall bit rate                 : 3 656 Kbps\nWriting application              : VirtualDubMod 1.5.4.1 (build 2178/release)\nWriting library                  : VirtualDubMod build 2178/release\n\n[b]Video[/b]\nID                               : 0\nFormat                           : MPEG-4 Visual\nFormat profile                   : Advanced Simple@L5\nFormat settings, BVOP            : Yes\nFormat settings, QPel            : No\nFormat settings, GMC             : No warppoints\nFormat settings, Matrix          : Custom\nMuxing mode                      : Packed bitstream\nCodec ID                         : XVID\nCodec ID/Hint                    : XviD\nDuration                         : 1h 34mn\nBit rate                         : 3 196 Kbps\nWidth                            : 1 280 pixels\nHeight                           : 720 pixels\nDisplay aspect ratio             : 16:9\nFrame rate                       : 23.976 fps\nColor space                      : YUV\nChroma subsampling               : 4:2:0\nBit depth                        : 8 bits\nScan type                        : Progressive\nBits/(Pixel*Frame)               : 0.145\nStream size                      : 2.10 GiB (87%)\nWriting library                  : XviD 64\n\n[b]Audio[/b]\nID                               : 1\nFormat                           : AC-3\nFormat/Info                      : Audio Coding 3\nMode extension                   : CM (complete main)\nCodec ID                         : 2000\nDuration                         : 1h 34mn\nBit rate mode                    : Constant\nBit rate                         : 448 Kbps\nChannel(s)                       : 6 channels\nChannel positions                : Front: L C R, Side: L R, LFE\nSampling rate                    : 48.0 KHz\nBit depth                        : 16 bits\nStream size                      : 302 MiB (12%)\nAlignment                        : Split accross interleaves\nInterleave, duration             : 42 ms (1.00 video frame)\nInterleave, preload duration     : 500 ms","torrent":{"xt":"urn:btih:71b4117a4ba12e3777ca9d0d65abcf3d1d20d3ba","amp;dn":"Journey.2.The.Mysterious.Island.2012.720p.BRrip.XviD.AC3-INFERNO","amp;tr":["udp%3A%2F%2Ftracker.openbittorrent.com%3A80","udp%3A%2F%2Fopen.demonii.com%3A1337","udp%3A%2F%2Ftracker.coppersurfer.tk%3A6969","udp%3A%2F%2Fexodus.desync.com%3A6969"],"infoHash":"71b4117a4ba12e3777ca9d0d65abcf3d1d20d3ba","infoHashBuffer":{"type":"Buffer","data":[113,180,17,122,75,161,46,55,119,202,157,13,101,171,207,61,29,32,211,186]},"announce":[],"urlList":[]}}